<?xml version="1.0" encoding="iso-8859-1"?>
<!-- Generator: Adobe Illustrator 19.0.0, SVG Export Plug-In . SVG Version: 6.00 Build 0)  -->
<svg version="1.1" id="Layer_1" xmlns="http://www.w3.org/2000/svg" xmlns:xlink="http://www.w3.org/1999/xlink" x="0px" y="0px"
	 viewBox="0 0 512.587 512.587" style="enable-background:new 0 0 512.587 512.587;" xml:space="preserve">
<g transform="translate(1 1)">
	<path style="fill:#FFDD09;" d="M388.12,170.253c0,80.213-53.76,145.067-119.467,145.067s-119.467-64.853-119.467-145.067
		s53.76-145.067,119.467-145.067S388.12,90.04,388.12,170.253"/>
	<g>
		<path style="fill:#54C9FD;" d="M303.64,311.053l-0.853-4.267c0,0-19.627-41.813-51.2-42.667s-34.133-25.6-34.133-25.6
			s0.853-28.16-25.6-34.133c-26.453-5.973-17.067,68.267-17.067,68.267l-2.56,5.12C208.92,311.053,258.413,322.147,303.64,311.053"
			/>
		<path style="fill:#54C9FD;" d="M166.253,67.853c-30.72,30.72-44.373,70.827-42.667,110.933h8.533
			c40.96,0.853,34.133-34.133,34.133-34.133c-4.267-45.227,9.387-79.36,15.36-90.453C175.64,58.467,170.52,62.733,166.253,67.853"/>
	</g>
	<path style="fill:#FFDD09;" d="M353.987,503.053h-153.6l0,0c0-18.773,15.36-34.133,34.133-34.133h85.333
		C338.627,468.92,353.987,484.28,353.987,503.053L353.987,503.053z"/>
	<path style="fill:#FFFFFF;" d="M234.52,468.92h-25.6c-18.773,0-34.133,15.36-34.133,34.133h25.6
		C200.387,484.28,215.747,468.92,234.52,468.92"/>
	<path style="fill:#FD9808;" d="M345.453,468.92h-25.6c18.773,0,34.133,15.36,34.133,34.133h25.6
		C379.587,484.28,364.227,468.92,345.453,468.92"/>
	<g>
		<path style="fill:#FFDD09;" d="M302.787,468.92h-51.2l8.533-119.467h34.133L302.787,468.92z"/>
		<path style="fill:#FFDD09;" d="M165.4,68.707c-2.56,0-4.267-0.853-5.973-2.56l-48.64-47.787c-3.413-3.413-3.413-8.533,0-11.947
			C114.2,3,119.32,3,122.733,6.413l48.64,48.64c3.413,3.413,3.413,8.533,0,11.947C169.667,67.853,167.107,68.707,165.4,68.707z"/>
		<path style="fill:#FFDD09;" d="M417.987,322.147c-2.56,0-4.267-0.853-5.973-2.56l-48.64-48.64c-3.413-3.413-3.413-8.533,0-11.947
			c3.413-3.413,8.533-3.413,11.947,0l48.64,48.64c3.413,3.413,3.413,8.533,0,11.947
			C423.107,321.293,420.547,322.147,417.987,322.147z"/>
		<path style="fill:#FFDD09;" d="M267.8,357.987c-50.347,0-100.693-18.773-139.093-56.32
			C92.013,264.973,71.533,216.333,70.68,164.28c0-52.907,20.48-103.253,58.027-140.8c8.533-8.533,17.92-16.213,27.307-23.04
			C160.28-2.12,165.4-1.267,167.96,3s1.707,9.387-2.56,11.947c-8.533,5.973-17.067,12.8-24.747,21.333
			c-34.133,34.133-52.907,80.213-52.907,128c0.853,47.787,19.627,92.16,52.907,125.44c69.973,68.267,183.467,68.267,253.44,0
			c7.68-7.68,14.507-15.36,20.48-24.747c2.56-4.267,7.68-5.12,11.947-2.56c4.267,2.56,5.12,7.68,2.56,11.947
			c-6.827,10.24-14.507,19.627-23.04,27.307C367.64,339.213,318.147,357.987,267.8,357.987z"/>
	</g>
	<path style="fill:#FFFFFF;" d="M149.187,170.253c0-80.213,53.76-145.067,119.467-145.067c-80.213,0-145.067,64.853-145.067,145.067
		S188.44,315.32,268.653,315.32C202.947,315.32,149.187,250.467,149.187,170.253"/>
	<path style="fill:#FD9808;" d="M268.653,25.187c65.707,0,119.467,64.853,119.467,145.067S334.36,315.32,268.653,315.32
		c80.213,0,145.067-64.853,145.067-145.067S348.867,25.187,268.653,25.187"/>
	<path style="fill:#54C9FD;" d="M232.813,30.307c-12.8,34.133-30.72,64.853-23.893,54.613c10.24-13.653,59.733-17.067,59.733-17.067
		c-7.68-27.307,42.667-34.133,42.667-34.133l0.853-1.707C285.72,23.48,258.413,23.48,232.813,30.307"/>
	<path style="fill:#33A9F8;" d="M371.053,67.853c-6.827-6.827-15.36-13.653-23.04-18.773c5.973,14.507,15.36,50.347-19.627,44.373
		c0,0-40.107-29.013-34.133,17.067c0,0-13.653,34.987-34.133,34.133c0,0-23.893,7.68,8.533,42.667s16.213-13.653,51.2,42.667
		c0,0,9.387,29.013,25.6,0c16.213-29.013,22.187-61.44,68.267-51.2C415.427,138.68,401.773,98.573,371.053,67.853"/>
	<path style="fill:#54C9FD;" d="M328.387,101.987c0,0-40.107-37.547-34.133,8.533c0,0-13.653,34.987-34.133,34.133
		c0,0-23.893,7.68,8.533,42.667s16.213-13.653,51.2,42.667c0,0,9.387,29.013,25.6,0c18.773-34.133,17.067-57.173,42.667-51.2
		c2.56-40.107-3.413-71.68-34.133-93.867L328.387,101.987z"/>
	<path d="M174.787,68.707c-2.56,0-4.267-0.853-5.973-2.56l-48.64-47.787c-3.413-3.413-3.413-8.533,0-11.947
		c3.413-3.413,8.533-3.413,11.947,0l48.64,48.64c3.413,3.413,3.413,8.533,0,11.947C179.053,67.853,176.493,68.707,174.787,68.707z"
		/>
	<path d="M428.227,322.147c-2.56,0-4.267-0.853-5.973-2.56l-48.64-48.64c-3.413-3.413-3.413-8.533,0-11.947
		c3.413-3.413,8.533-3.413,11.947,0l48.64,48.64c3.413,3.413,3.413,8.533,0,11.947C432.493,321.293,429.933,322.147,428.227,322.147
		z"/>
	<path d="M277.187,357.987c-50.347,0-100.693-18.773-139.093-56.32C101.4,264.973,80.92,216.333,80.92,164.28
		c0-52.907,20.48-103.253,58.027-140.8c8.533-8.533,17.92-16.213,27.307-23.04c3.413-1.707,8.533-0.853,11.093,2.56
		c2.56,4.267,1.707,9.387-2.56,11.947c-8.533,5.973-17.067,12.8-24.747,21.333c-34.133,34.133-52.907,80.213-52.907,128
		c0.853,47.787,19.627,92.16,52.907,125.44c69.973,68.267,183.467,68.267,253.44,0c7.68-7.68,14.507-15.36,20.48-24.747
		c2.56-4.267,7.68-5.12,11.947-2.56c4.267,2.56,5.12,7.68,2.56,11.947c-6.827,10.24-14.507,19.627-23.04,27.307
		C377.88,339.213,327.533,357.987,277.187,357.987z"/>
	<path d="M379.587,511.587h-204.8c-5.12,0-8.533-3.413-8.533-8.533c0-23.893,18.773-42.667,42.667-42.667h136.533
		c23.893,0,42.667,18.773,42.667,42.667C388.12,508.173,384.707,511.587,379.587,511.587z M185.027,494.52H370.2
		c-3.413-10.24-12.8-17.067-23.893-17.067H208.92C197.827,477.453,188.44,484.28,185.027,494.52z"/>
	<path d="M268.653,323.853c-39.253,0-78.507-15.36-108.373-45.227c-59.733-59.733-59.733-157.013,0-217.6
		c59.733-59.733,157.013-59.733,217.6,0l0,0c28.16,29.867,44.373,68.267,44.373,109.227s-16.213,79.36-45.227,108.373
		C347.16,308.493,307.907,323.853,268.653,323.853z M268.653,33.72c-34.987,0-69.973,13.653-96.427,40.107
		c-52.907,52.907-52.907,139.947,0,192.853s139.947,52.907,192.853,0c25.6-25.6,40.107-59.733,40.107-96.427
		S390.68,99.427,365.08,73.827l0,0C338.627,47.373,303.64,33.72,268.653,33.72z"/>
	<path d="M331.8,251.32c-0.853,0-0.853,0-1.707,0c-11.093-0.853-16.213-13.653-17.92-17.92
		c-11.947-18.773-16.213-23.04-17.92-24.747c0,0,0,0-0.853,0c-8.533,1.707-16.213,0-31.573-16.213s-21.333-29.867-18.773-41.813
		c2.56-11.093,11.947-14.507,13.653-14.507c0.853,0,1.707-0.853,3.413-0.853c10.24,0.853,20.48-17.067,24.747-26.453
		c-1.707-15.36,1.707-25.6,10.24-30.72c12.8-7.68,29.867,2.56,35.84,6.827c4.267,0.853,9.387,0.853,11.947-1.707
		c3.413-4.267,2.56-17.067-3.413-31.573c-1.707-3.413,0-7.68,2.56-9.387c2.56-2.56,6.827-2.56,10.24-0.853
		c8.533,5.973,17.067,12.8,24.747,19.627c30.72,30.72,46.933,73.387,44.373,117.76c0,2.56-1.707,5.12-3.413,5.973
		c-1.707,2.56-4.267,2.56-6.827,2.56c-31.573-6.827-38.4,7.68-50.347,31.573c-2.56,5.12-5.12,10.24-7.68,15.36
		C350.573,238.52,342.893,251.32,331.8,251.32z M294.253,192.44c9.387,0,17.067,7.68,32.427,33.28c0,0.853,0.853,0.853,0.853,1.707
		c0.853,2.56,2.56,5.12,3.413,6.827c0.853-0.853,3.413-2.56,5.973-8.533c2.56-5.12,5.12-9.387,7.68-14.507
		c11.093-22.187,23.04-46.933,59.733-42.667c0-35.84-14.507-69.973-40.107-94.72c-0.853-0.853-1.707-1.707-3.413-3.413
		c0.853,8.533-0.853,17.067-5.973,23.04c-5.973,7.68-16.213,10.24-29.013,7.68c-1.707,0-2.56-0.853-3.413-1.707
		c-6.827-5.12-16.213-8.533-18.773-6.827c-0.853,0.853-2.56,4.267-1.707,16.213c0,1.707,0,2.56-0.853,4.267
		c-1.707,4.267-16.213,38.4-40.107,39.253c-0.853,0.853-1.707,0.853-1.707,2.56c-0.853,1.707-0.853,9.387,14.507,25.6
		c11.093,11.947,13.653,11.093,15.36,11.093C291.693,192.44,293.4,192.44,294.253,192.44z"/>
	<path d="M207.213,95.16c-1.707,0-3.413-0.853-4.267-1.707c-6.827-4.267-4.267-9.387,1.707-21.333
		c4.267-9.387,12.8-27.307,19.627-45.227c0.853-2.56,3.413-4.267,5.973-5.12c28.16-6.827,57.173-6.827,83.627,1.707
		c5.12,1.707,7.68,5.973,5.973,10.24v1.707C319,38.84,316.44,41.4,313.027,41.4c-10.24,1.707-29.013,6.827-34.987,15.36
		c-1.707,2.56-1.707,5.12-0.853,7.68c0,3.413,0,5.973-1.707,8.533c-0.853,1.707-3.413,3.413-5.973,3.413
		c-22.187,1.707-48.64,7.68-53.76,13.653C212.333,94.307,209.773,95.16,207.213,95.16z M238.787,37.133
		c-4.267,10.24-8.533,20.48-12.8,29.013c11.093-3.413,23.893-5.12,33.28-5.973c0-4.267,1.707-8.533,4.267-11.947
		c4.267-5.973,10.24-10.24,17.067-13.653C266.093,32.867,252.44,33.72,238.787,37.133z"/>
	<path d="M132.973,187.32L132.973,187.32h-9.387c-4.267,0-8.533-3.413-8.533-7.68c-2.56-44.373,14.507-87.04,45.227-117.76l0,0
		c4.267-4.267,9.387-8.533,16.213-13.653c3.413-2.56,7.68-2.56,10.24,0c3.413,2.56,4.267,6.827,2.56,10.24
		c-5.973,11.093-17.92,42.667-14.507,85.333l0,0c0,0,3.413,17.067-7.68,30.72C159.427,183.053,148.333,187.32,132.973,187.32z
		 M132.12,170.253c10.24,0,17.067-2.56,21.333-6.827c5.973-6.827,4.267-17.067,4.267-17.067c-2.56-23.893,0-44.373,3.413-60.587
		C142.36,109.667,132.12,139.533,132.12,170.253z"/>
	<path d="M268.653,323.853c-37.547,0-74.24-13.653-102.4-39.253c-2.56-2.56-3.413-6.827-1.707-10.24l1.707-3.413
		c-1.707-13.653-5.12-56.32,10.24-70.827c5.12-4.267,11.093-5.973,17.92-4.267c25.6,5.973,32.427,29.867,32.427,41.813
		c0.853,3.413,4.267,17.067,25.6,17.92c36.693,0.853,58.027,46.08,58.88,47.787c0,0.853,0,0.853,0.853,1.707l0.853,4.267
		c0.853,2.56,0,4.267-0.853,6.827c-0.853,2.56-3.413,3.413-5.12,4.267C293.4,322.147,281.453,323.853,268.653,323.853z
		 M182.467,276.067c30.72,24.747,70.827,34.987,109.227,29.013c-5.973-11.093-20.48-32.427-40.107-32.427
		c-30.72-0.853-40.96-22.187-42.667-33.28v-0.853c0-1.707,0-21.333-18.773-25.6c-1.707,0-1.707,0-2.56,0
		c-6.827,5.973-7.68,34.987-4.267,58.027C183.32,273.507,183.32,274.36,182.467,276.067z"/>
	<path d="M302.787,477.453h-51.2c-2.56,0-4.267-0.853-5.973-2.56c-1.707-1.707-2.56-4.267-2.56-6.827l8.533-119.467
		c0-4.267,4.267-7.68,8.533-7.68h34.133c4.267,0,8.533,3.413,8.533,7.68l8.533,119.467c0,2.56-0.853,4.267-2.56,6.827
		C307.053,476.6,305.347,477.453,302.787,477.453z M260.973,460.387h33.28l-7.68-102.4h-17.92L260.973,460.387z"/>
</g>
<g>
</g>
<g>
</g>
<g>
</g>
<g>
</g>
<g>
</g>
<g>
</g>
<g>
</g>
<g>
</g>
<g>
</g>
<g>
</g>
<g>
</g>
<g>
</g>
<g>
</g>
<g>
</g>
<g>
</g>
</svg>
