<?xml version="1.0" encoding="iso-8859-1"?>
<!-- Generator: Adobe Illustrator 19.0.0, SVG Export Plug-In . SVG Version: 6.00 Build 0)  -->
<svg version="1.1" id="Layer_1" xmlns="http://www.w3.org/2000/svg" xmlns:xlink="http://www.w3.org/1999/xlink" x="0px" y="0px"
	 viewBox="0 0 495 495" style="enable-background:new 0 0 495 495;" xml:space="preserve">
<g>
	<path style="fill:#FFA733;" d="M379.942,243.25c25.956-6.124,55.431-10.323,90.093-11.689L327.52,65.275v116.812L379.942,243.25z"
		/>
	<polygon style="fill:#FFC477;" points="327.52,65.275 277.462,123.681 327.52,182.086 	"/>
	<path style="fill:#CC7400;" d="M247.5,298.705c38.989-21.303,77.98-42.606,132.442-55.455l-52.422-61.164l-50.058-58.405
		L197.44,30.315v242.271C214.881,280.879,231.191,289.792,247.5,298.705z"/>
	<path style="fill:#EE8700;" d="M197.44,30.315L24.957,231.561c76.973,3.03,128.357,20.042,172.483,41.025V30.315z"/>
	<path style="fill:#FFDE55;" d="M247.5,298.705c-16.309-8.914-32.619-17.826-50.06-26.119
		c-44.126-20.983-95.51-37.995-172.483-41.025c-8.037-0.316-16.342-0.486-24.957-0.486v233.61h495v-98.36
		C371.25,366.325,309.38,332.515,247.5,298.705z"/>
	<path style="fill:#FFCD00;" d="M470.035,231.562c-34.662,1.365-64.137,5.565-90.093,11.689
		c-54.462,12.849-93.453,34.152-132.442,55.455c61.88,33.81,123.75,67.62,247.5,67.62v-135.25
		C486.382,231.075,478.074,231.245,470.035,231.562z"/>
</g>
<g>
</g>
<g>
</g>
<g>
</g>
<g>
</g>
<g>
</g>
<g>
</g>
<g>
</g>
<g>
</g>
<g>
</g>
<g>
</g>
<g>
</g>
<g>
</g>
<g>
</g>
<g>
</g>
<g>
</g>
</svg>
